<svg width="45" height="18" viewBox="0 0 45 18" fill="none" xmlns="http://www.w3.org/2000/svg">
<path d="M15.496 9.6C15.496 14.328 11.848 18 6.568 18H0.0160002V1.2H6.568C11.848 1.2 15.496 4.824 15.496 9.552V9.6ZM11.632 9.648V9.6C11.632 6.624 9.592 4.536 6.568 4.536H3.712V14.664H6.568C9.592 14.664 11.632 12.624 11.632 9.648ZM27.7654 12.312H20.3734V8.808H27.7654V12.312ZM38.7863 4.272C37.4903 4.272 36.6023 4.992 35.3543 6.528L32.7623 4.44C34.4183 2.184 36.0263 0.959999 39.0263 0.959999C42.6023 0.959999 44.8103 3.024 44.8103 6.168C44.8103 8.976 43.3703 10.392 40.3943 12.696L37.6583 14.808H44.9783V18H32.5463V15.072L38.1383 10.488C40.2263 8.76 41.0423 7.848 41.0423 6.456C41.0423 5.04 40.1063 4.272 38.7863 4.272Z" fill="#151515"/>
</svg>
