<svg width="45" height="18" viewBox="0 0 45 18" fill="none" xmlns="http://www.w3.org/2000/svg">
<path d="M15.496 8.6C15.496 13.328 11.848 17 6.568 17H0.0160002V0.199999H6.568C11.848 0.199999 15.496 3.824 15.496 8.552V8.6ZM11.632 8.648V8.6C11.632 5.624 9.592 3.536 6.568 3.536H3.712V13.664H6.568C9.592 13.664 11.632 11.624 11.632 8.648ZM27.7654 11.312H20.3734V7.808H27.7654V11.312ZM39.6319 3.368H33.0319V0.199999H44.3839V2.984L40.1359 7.04C42.4399 7.424 44.6479 8.624 44.6479 11.768C44.6479 14.96 42.3439 17.288 38.5999 17.288C35.5759 17.288 33.4879 16.088 32.0479 14.384L34.5919 11.96C35.7439 13.256 36.9439 13.976 38.6479 13.976C40.0399 13.976 41.0239 13.184 41.0239 11.912C41.0239 10.52 39.8479 9.752 37.7359 9.752H36.1999L35.6239 7.4L39.6319 3.368Z" fill="#151515"/>
</svg>
