<svg width="47" height="17" viewBox="0 0 47 17" fill="none" xmlns="http://www.w3.org/2000/svg">
<path d="M15.496 8.6C15.496 13.328 11.848 17 6.568 17H0.0160002V0.199999H6.568C11.848 0.199999 15.496 3.824 15.496 8.552V8.6ZM11.632 8.648V8.6C11.632 5.624 9.592 3.536 6.568 3.536H3.712V13.664H6.568C9.592 13.664 11.632 11.624 11.632 8.648ZM27.7654 11.312H20.3734V7.808H27.7654V11.312ZM41.3303 0.079999H44.4503V10.376H46.7063V13.376H44.4503V17H40.9223V13.376H32.7143L32.1143 10.76L41.3303 0.079999ZM40.9223 10.376V5.144L36.4583 10.376H40.9223Z" fill="#151515"/>
</svg>
