<svg width="46" height="18" viewBox="0 0 46 18" fill="none" xmlns="http://www.w3.org/2000/svg">
<path d="M15.496 8.6C15.496 13.328 11.848 17 6.568 17H0.0160002V0.199999H6.568C11.848 0.199999 15.496 3.824 15.496 8.552V8.6ZM11.632 8.648V8.6C11.632 5.624 9.592 3.536 6.568 3.536H3.712V13.664H6.568C9.592 13.664 11.632 11.624 11.632 8.648ZM27.7654 11.312H20.3734V7.808H27.7654V11.312ZM33.5303 8.48L34.0103 0.199999H44.3303V3.44H37.1783L36.9863 6.344C37.6583 6.176 38.2583 6.056 39.1943 6.056C42.5063 6.056 45.0743 7.64 45.0743 11.456C45.0743 15.032 42.5543 17.288 38.6903 17.288C36.0023 17.288 34.0343 16.328 32.4023 14.768L34.6343 12.104C35.9063 13.256 37.1543 13.928 38.6423 13.928C40.3703 13.928 41.4503 13.088 41.4503 11.576C41.4503 10.112 40.2743 9.272 38.4743 9.272C37.4183 9.272 36.4583 9.56 35.6663 9.896L33.5303 8.48Z" fill="#151515"/>
</svg>
