<svg width="46" height="19" viewBox="0 0 46 19" fill="none" xmlns="http://www.w3.org/2000/svg">
<path d="M15.496 9.6C15.496 14.328 11.848 18 6.568 18H0.0160002V1.2H6.568C11.848 1.2 15.496 4.824 15.496 9.552V9.6ZM11.632 9.648V9.6C11.632 6.624 9.592 4.536 6.568 4.536H3.712V14.664H6.568C9.592 14.664 11.632 12.624 11.632 9.648ZM27.7654 12.312H20.3734V8.808H27.7654V12.312ZM45.2903 2.76L43.3463 5.616C42.2423 4.776 41.3543 4.272 39.9143 4.272C37.8263 4.272 36.7703 5.952 36.5303 8.16C37.3703 7.608 38.3543 7.08 40.0103 7.08C43.3463 7.08 45.9143 8.928 45.9143 12.456C45.9143 15.912 43.1543 18.288 39.5063 18.288C37.3223 18.288 35.8343 17.664 34.6583 16.488C33.4343 15.264 32.6663 13.464 32.6663 10.104C32.6663 4.896 35.0183 0.912 40.0343 0.912C42.3143 0.912 43.8023 1.584 45.2903 2.76ZM42.2423 12.624C42.2423 11.184 41.1383 10.152 39.3143 10.152C37.4903 10.152 36.4343 11.16 36.4343 12.6C36.4343 14.064 37.5383 15.12 39.3623 15.12C41.1863 15.12 42.2423 14.088 42.2423 12.624Z" fill="#151515"/>
</svg>
