<svg width="46" height="17" viewBox="0 0 46 17" fill="none" xmlns="http://www.w3.org/2000/svg">
<path d="M15.496 8.6C15.496 9.784 15.28 10.888 14.848 11.912C14.416 12.936 13.8 13.824 13 14.576C12.216 15.328 11.272 15.92 10.168 16.352C9.08 16.784 7.88 17 6.568 17H0.0160002V0.199999H6.568C7.88 0.199999 9.08 0.415999 10.168 0.847999C11.272 1.264 12.216 1.848 13 2.6C13.8 3.352 14.416 4.24 14.848 5.264C15.28 6.272 15.496 7.368 15.496 8.552V8.6ZM11.632 8.648V8.6C11.632 7.864 11.504 7.184 11.248 6.56C11.008 5.936 10.664 5.4 10.216 4.952C9.784 4.504 9.256 4.16 8.632 3.92C8.008 3.664 7.32 3.536 6.568 3.536H3.712V13.664H6.568C7.32 13.664 8.008 13.544 8.632 13.304C9.256 13.064 9.784 12.72 10.216 12.272C10.664 11.824 11.008 11.296 11.248 10.688C11.504 10.08 11.632 9.4 11.632 8.648ZM27.7654 11.312H20.3734V7.808H27.7654V11.312ZM33.0023 3.392V0.199999H45.0983V2.984L37.5623 17H33.3863L40.8983 3.392H33.0023Z" fill="#151515"/>
</svg>
