<svg width="40" height="17" viewBox="0 0 40 17" fill="none" xmlns="http://www.w3.org/2000/svg">
<path d="M15.7483 8.6C15.7483 9.784 15.5323 10.888 15.1003 11.912C14.6683 12.936 14.0523 13.824 13.2523 14.576C12.4683 15.328 11.5243 15.92 10.4203 16.352C9.33234 16.784 8.13234 17 6.82034 17H0.268344V0.199999H6.82034C8.13234 0.199999 9.33234 0.415999 10.4203 0.847999C11.5243 1.264 12.4683 1.848 13.2523 2.6C14.0523 3.352 14.6683 4.24 15.1003 5.264C15.5323 6.272 15.7483 7.368 15.7483 8.552V8.6ZM11.8843 8.648V8.6C11.8843 7.864 11.7563 7.184 11.5003 6.56C11.2603 5.936 10.9163 5.4 10.4683 4.952C10.0363 4.504 9.50834 4.16 8.88434 3.92C8.26034 3.664 7.57234 3.536 6.82034 3.536H3.96434V13.664H6.82034C7.57234 13.664 8.26034 13.544 8.88434 13.304C9.50834 13.064 10.0363 12.72 10.4683 12.272C10.9163 11.824 11.2603 11.296 11.5003 10.688C11.7563 10.08 11.8843 9.4 11.8843 8.648ZM28.0178 11.312H20.6258V7.808H28.0178V11.312ZM32.1987 1.52L37.0227 0.079999H39.5427V17H35.8947V3.824L32.9667 4.544L32.1987 1.52Z" fill="#004029"/>
</svg>
