<svg width="46" height="18" viewBox="0 0 46 18" fill="none" xmlns="http://www.w3.org/2000/svg">
<path d="M15.8343 9.6C15.8343 10.784 15.6183 11.888 15.1863 12.912C14.7543 13.936 14.1383 14.824 13.3383 15.576C12.5543 16.328 11.6103 16.92 10.5063 17.352C9.41828 17.784 8.21828 18 6.90628 18H0.354282V1.2H6.90628C8.21828 1.2 9.41828 1.416 10.5063 1.848C11.6103 2.264 12.5543 2.848 13.3383 3.6C14.1383 4.352 14.7543 5.24 15.1863 6.264C15.6183 7.272 15.8343 8.368 15.8343 9.552V9.6ZM11.9703 9.648V9.6C11.9703 8.864 11.8423 8.184 11.5863 7.56C11.3463 6.936 11.0023 6.4 10.5543 5.952C10.1223 5.504 9.59428 5.16 8.97028 4.92C8.34628 4.664 7.65828 4.536 6.90628 4.536H4.05028V14.664H6.90628C7.65828 14.664 8.34628 14.544 8.97028 14.304C9.59428 14.064 10.1223 13.72 10.5543 13.272C11.0023 12.824 11.3463 12.296 11.5863 11.688C11.8423 11.08 11.9703 10.4 11.9703 9.648ZM28.1037 12.312H20.7117V8.808H28.1037V12.312ZM39.1246 4.272C38.4686 4.272 37.8846 4.456 37.3726 4.824C36.8766 5.192 36.3166 5.76 35.6926 6.528L33.1006 4.44C33.5166 3.88 33.9326 3.384 34.3486 2.952C34.7806 2.52 35.2366 2.16 35.7166 1.872C36.2126 1.568 36.7566 1.344 37.3486 1.2C37.9406 1.04 38.6126 0.959999 39.3646 0.959999C40.2606 0.959999 41.0606 1.088 41.7646 1.344C42.4846 1.584 43.0926 1.936 43.5886 2.4C44.1006 2.848 44.4846 3.392 44.7406 4.032C45.0126 4.672 45.1486 5.384 45.1486 6.168C45.1486 6.872 45.0526 7.504 44.8606 8.064C44.6846 8.608 44.4126 9.128 44.0446 9.624C43.6926 10.12 43.2366 10.616 42.6766 11.112C42.1166 11.592 41.4686 12.12 40.7326 12.696L37.9966 14.808H45.3166V18H32.8846V15.072L38.4766 10.488C39.0046 10.056 39.4526 9.672 39.8206 9.336C40.1886 8.984 40.4846 8.656 40.7086 8.352C40.9486 8.032 41.1166 7.728 41.2126 7.44C41.3246 7.136 41.3806 6.808 41.3806 6.456C41.3806 5.736 41.1726 5.192 40.7566 4.824C40.3406 4.456 39.7966 4.272 39.1246 4.272Z" fill="#004029"/>
</svg>
