<svg width="46" height="18" viewBox="0 0 46 18" fill="none" xmlns="http://www.w3.org/2000/svg">
<path d="M15.8577 8.6C15.8577 9.784 15.6417 10.888 15.2097 11.912C14.7777 12.936 14.1617 13.824 13.3617 14.576C12.5777 15.328 11.6337 15.92 10.5297 16.352C9.44172 16.784 8.24172 17 6.92972 17H0.377719V0.199999H6.92972C8.24172 0.199999 9.44172 0.415999 10.5297 0.847999C11.6337 1.264 12.5777 1.848 13.3617 2.6C14.1617 3.352 14.7777 4.24 15.2097 5.264C15.6417 6.272 15.8577 7.368 15.8577 8.552V8.6ZM11.9937 8.648V8.6C11.9937 7.864 11.8657 7.184 11.6097 6.56C11.3697 5.936 11.0257 5.4 10.5777 4.952C10.1457 4.504 9.61772 4.16 8.99372 3.92C8.36972 3.664 7.68172 3.536 6.92972 3.536H4.07372V13.664H6.92972C7.68172 13.664 8.36972 13.544 8.99372 13.304C9.61772 13.064 10.1457 12.72 10.5777 12.272C11.0257 11.824 11.3697 11.296 11.6097 10.688C11.8657 10.08 11.9937 9.4 11.9937 8.648ZM28.1272 11.312H20.7352V7.808H28.1272V11.312ZM40.228 3.368H33.628V0.199999H44.98V2.984L40.732 7.04C41.308 7.136 41.868 7.288 42.412 7.496C42.956 7.704 43.436 8 43.852 8.384C44.268 8.752 44.604 9.216 44.86 9.776C45.116 10.32 45.244 10.984 45.244 11.768C45.244 12.568 45.1 13.304 44.812 13.976C44.54 14.648 44.14 15.232 43.612 15.728C43.1 16.224 42.468 16.608 41.716 16.88C40.964 17.152 40.124 17.288 39.196 17.288C37.676 17.288 36.38 17.024 35.308 16.496C34.252 15.952 33.364 15.248 32.644 14.384L35.188 11.96C35.764 12.616 36.364 13.12 36.988 13.472C37.628 13.808 38.38 13.976 39.244 13.976C39.948 13.976 40.516 13.792 40.948 13.424C41.396 13.056 41.62 12.552 41.62 11.912C41.62 11.208 41.332 10.672 40.756 10.304C40.196 9.936 39.388 9.752 38.332 9.752H36.796L36.22 7.4L40.228 3.368Z" fill="#004029"/>
</svg>
