<svg width="47" height="17" viewBox="0 0 47 17" fill="none" xmlns="http://www.w3.org/2000/svg">
<path d="M15.5374 8.6C15.5374 9.784 15.3214 10.888 14.8894 11.912C14.4574 12.936 13.8414 13.824 13.0414 14.576C12.2574 15.328 11.3134 15.92 10.2094 16.352C9.12141 16.784 7.92141 17 6.60941 17H0.0574068V0.199999H6.60941C7.92141 0.199999 9.12141 0.415999 10.2094 0.847999C11.3134 1.264 12.2574 1.848 13.0414 2.6C13.8414 3.352 14.4574 4.24 14.8894 5.264C15.3214 6.272 15.5374 7.368 15.5374 8.552V8.6ZM11.6734 8.648V8.6C11.6734 7.864 11.5454 7.184 11.2894 6.56C11.0494 5.936 10.7054 5.4 10.2574 4.952C9.82541 4.504 9.29741 4.16 8.67341 3.92C8.04941 3.664 7.36141 3.536 6.60941 3.536H3.75341V13.664H6.60941C7.36141 13.664 8.04941 13.544 8.67341 13.304C9.29741 13.064 9.82541 12.72 10.2574 12.272C10.7054 11.824 11.0494 11.296 11.2894 10.688C11.5454 10.08 11.6734 9.4 11.6734 8.648ZM27.8068 11.312H20.4148V7.808H27.8068V11.312ZM41.3717 0.079999H44.4917V10.376H46.7477V13.376H44.4917V17H40.9637V13.376H32.7557L32.1557 10.76L41.3717 0.079999ZM40.9637 10.376V5.144L36.4997 10.376H40.9637Z" fill="#004029"/>
</svg>
