<svg width="46" height="18" viewBox="0 0 46 18" fill="none" xmlns="http://www.w3.org/2000/svg">
<path d="M15.7523 8.6C15.7523 9.784 15.5363 10.888 15.1043 11.912C14.6723 12.936 14.0563 13.824 13.2563 14.576C12.4723 15.328 11.5283 15.92 10.4243 16.352C9.33625 16.784 8.13625 17 6.82425 17H0.272251V0.199999H6.82425C8.13625 0.199999 9.33625 0.415999 10.4243 0.847999C11.5283 1.264 12.4723 1.848 13.2563 2.6C14.0563 3.352 14.6723 4.24 15.1043 5.264C15.5363 6.272 15.7523 7.368 15.7523 8.552V8.6ZM11.8883 8.648V8.6C11.8883 7.864 11.7603 7.184 11.5043 6.56C11.2643 5.936 10.9203 5.4 10.4723 4.952C10.0403 4.504 9.51225 4.16 8.88825 3.92C8.26425 3.664 7.57625 3.536 6.82425 3.536H3.96825V13.664H6.82425C7.57625 13.664 8.26425 13.544 8.88825 13.304C9.51225 13.064 10.0403 12.72 10.4723 12.272C10.9203 11.824 11.2643 11.296 11.5043 10.688C11.7603 10.08 11.8883 9.4 11.8883 8.648ZM28.0217 11.312H20.6297V7.808H28.0217V11.312ZM33.7866 8.48L34.2666 0.199999H44.5866V3.44H37.4346L37.2426 6.344C37.5786 6.264 37.9146 6.2 38.2506 6.152C38.5866 6.088 38.9866 6.056 39.4506 6.056C40.2826 6.056 41.0506 6.16 41.7546 6.368C42.4746 6.576 43.0986 6.896 43.6266 7.328C44.1546 7.76 44.5706 8.32 44.8746 9.008C45.1786 9.68 45.3306 10.496 45.3306 11.456C45.3306 12.352 45.1786 13.16 44.8746 13.88C44.5706 14.6 44.1386 15.216 43.5786 15.728C43.0346 16.224 42.3626 16.608 41.5626 16.88C40.7786 17.152 39.9066 17.288 38.9466 17.288C37.5866 17.288 36.4026 17.064 35.3946 16.616C34.3866 16.168 33.4746 15.552 32.6586 14.768L34.8906 12.104C35.5306 12.68 36.1706 13.128 36.8106 13.448C37.4506 13.768 38.1466 13.928 38.8986 13.928C39.7626 13.928 40.4426 13.728 40.9386 13.328C41.4506 12.928 41.7066 12.344 41.7066 11.576C41.7066 10.84 41.4346 10.272 40.8906 9.872C40.3626 9.472 39.6426 9.272 38.7306 9.272C38.2026 9.272 37.6986 9.336 37.2186 9.464C36.7546 9.576 36.3226 9.72 35.9226 9.896L33.7866 8.48Z" fill="#004029"/>
</svg>
