<svg width="47" height="19" viewBox="0 0 47 19" fill="none" xmlns="http://www.w3.org/2000/svg">
<path d="M15.8655 9.6C15.8655 10.784 15.6495 11.888 15.2175 12.912C14.7855 13.936 14.1695 14.824 13.3695 15.576C12.5855 16.328 11.6415 16.92 10.5375 17.352C9.44953 17.784 8.24953 18 6.93753 18H0.385532V1.2H6.93753C8.24953 1.2 9.44953 1.416 10.5375 1.848C11.6415 2.264 12.5855 2.848 13.3695 3.6C14.1695 4.352 14.7855 5.24 15.2175 6.264C15.6495 7.272 15.8655 8.368 15.8655 9.552V9.6ZM12.0015 9.648V9.6C12.0015 8.864 11.8735 8.184 11.6175 7.56C11.3775 6.936 11.0335 6.4 10.5855 5.952C10.1535 5.504 9.62553 5.16 9.00153 4.92C8.37753 4.664 7.68953 4.536 6.93753 4.536H4.08153V14.664H6.93753C7.68953 14.664 8.37753 14.544 9.00153 14.304C9.62553 14.064 10.1535 13.72 10.5855 13.272C11.0335 12.824 11.3775 12.296 11.6175 11.688C11.8735 11.08 12.0015 10.4 12.0015 9.648ZM28.135 12.312H20.743V8.808H28.135V12.312ZM45.6598 2.76L43.7158 5.616C43.4438 5.408 43.1798 5.224 42.9238 5.064C42.6678 4.888 42.4038 4.744 42.1318 4.632C41.8598 4.52 41.5718 4.432 41.2678 4.368C40.9638 4.304 40.6358 4.272 40.2838 4.272C39.7558 4.272 39.2918 4.376 38.8918 4.584C38.5078 4.776 38.1718 5.048 37.8838 5.4C37.6118 5.736 37.3958 6.144 37.2358 6.624C37.0758 7.104 36.9638 7.616 36.8998 8.16C37.3158 7.888 37.7878 7.64 38.3158 7.416C38.8598 7.192 39.5478 7.08 40.3798 7.08C41.2118 7.08 41.9878 7.2 42.7078 7.44C43.4278 7.664 44.0518 8 44.5798 8.448C45.1078 8.896 45.5238 9.456 45.8278 10.128C46.1318 10.8 46.2838 11.576 46.2838 12.456C46.2838 13.32 46.1158 14.112 45.7798 14.832C45.4598 15.536 45.0118 16.152 44.4358 16.68C43.8758 17.192 43.2038 17.592 42.4198 17.88C41.6358 18.152 40.7878 18.288 39.8758 18.288C38.7718 18.288 37.8358 18.136 37.0678 17.832C36.2998 17.528 35.6198 17.08 35.0278 16.488C34.4198 15.88 33.9318 15.088 33.5638 14.112C33.2118 13.12 33.0358 11.784 33.0358 10.104C33.0358 8.808 33.1798 7.6 33.4678 6.48C33.7718 5.36 34.2278 4.392 34.8358 3.576C35.4438 2.744 36.2118 2.096 37.1398 1.632C38.0678 1.152 39.1558 0.912 40.4038 0.912C40.9798 0.912 41.5078 0.952 41.9878 1.032C42.4678 1.112 42.9158 1.232 43.3318 1.392C43.7478 1.552 44.1478 1.752 44.5318 1.992C44.9158 2.216 45.2918 2.472 45.6598 2.76ZM42.6118 12.624C42.6118 11.904 42.3478 11.312 41.8198 10.848C41.3078 10.384 40.5958 10.152 39.6838 10.152C38.7718 10.152 38.0598 10.384 37.5478 10.848C37.0518 11.296 36.8038 11.88 36.8038 12.6C36.8038 13.336 37.0598 13.944 37.5718 14.424C38.0998 14.888 38.8198 15.12 39.7318 15.12C40.6438 15.12 41.3478 14.888 41.8438 14.424C42.3558 13.96 42.6118 13.36 42.6118 12.624Z" fill="#004029"/>
</svg>
