<svg width="46" height="17" viewBox="0 0 46 17" fill="none" xmlns="http://www.w3.org/2000/svg">
<path d="M15.8812 8.6C15.8812 9.784 15.6652 10.888 15.2332 11.912C14.8012 12.936 14.1852 13.824 13.3852 14.576C12.6012 15.328 11.6572 15.92 10.5532 16.352C9.46516 16.784 8.26516 17 6.95316 17H0.401157V0.199999H6.95316C8.26516 0.199999 9.46516 0.415999 10.5532 0.847999C11.6572 1.264 12.6012 1.848 13.3852 2.6C14.1852 3.352 14.8012 4.24 15.2332 5.264C15.6652 6.272 15.8812 7.368 15.8812 8.552V8.6ZM12.0172 8.648V8.6C12.0172 7.864 11.8892 7.184 11.6332 6.56C11.3932 5.936 11.0492 5.4 10.6012 4.952C10.1692 4.504 9.64116 4.16 9.01716 3.92C8.39316 3.664 7.70516 3.536 6.95316 3.536H4.09716V13.664H6.95316C7.70516 13.664 8.39316 13.544 9.01716 13.304C9.64116 13.064 10.1692 12.72 10.6012 12.272C11.0492 11.824 11.3932 11.296 11.6332 10.688C11.8892 10.08 12.0172 9.4 12.0172 8.648ZM28.1506 11.312H20.7586V7.808H28.1506V11.312ZM33.3875 3.392V0.199999H45.4835V2.984L37.9475 17H33.7715L41.2835 3.392H33.3875Z" fill="#004029"/>
</svg>
