<svg width="336" height="397" viewBox="0 0 336 397" fill="none" xmlns="http://www.w3.org/2000/svg">
<g filter="url(#filter0_f_545_2026)">
<ellipse cx="230" cy="275.034" rx="4" ry="1" fill="#151515"/>
</g>
<path fill-rule="evenodd" clip-rule="evenodd" d="M222 248.034C220.895 248.034 220 248.93 220 250.034V266.034C220 267.139 220.895 268.034 222 268.034H227.228L229.044 273.93C229.334 274.871 230.666 274.871 230.955 273.93L232.771 268.034H238C239.105 268.034 240 267.139 240 266.034V250.034C240 248.93 239.105 248.034 238 248.034H222Z" fill="#151515"/>
<path d="M235.626 254.805L235.351 252.831C235.351 252.831 235.246 251.861 232.527 251.294C230.862 250.947 229.136 250.947 227.472 251.294C224.752 251.861 224.647 252.831 224.647 252.831L224.371 254.805C224.124 256.579 224 258.368 224 260.158V263.034C224 263.208 224.148 263.35 224.33 263.35H225.171V264.128C225.171 264.628 225.594 265.034 226.117 265.034C226.639 265.034 227.062 264.628 227.062 264.128V263.35H232.938V264.128C232.938 264.628 233.361 265.034 233.883 265.034C234.406 265.034 234.829 264.628 234.829 264.128V263.35H235.67C235.852 263.35 236 263.208 236 263.034V260.158C236 258.368 235.876 256.579 235.629 254.805H235.626ZM226.897 252.605C226.897 252.311 227.145 252.073 227.451 252.073H232.547C232.854 252.073 233.102 252.311 233.102 252.605C233.102 252.898 232.854 253.136 232.547 253.136H227.451C227.145 253.136 226.897 252.898 226.897 252.605ZM226.213 261.725C225.713 261.725 225.31 261.337 225.31 260.859C225.31 260.381 225.714 259.993 226.213 259.993C226.711 259.993 227.115 260.381 227.115 260.859C227.115 261.337 226.711 261.725 226.213 261.725ZM233.786 261.725C233.287 261.725 232.883 261.337 232.883 260.859C232.883 260.381 233.288 259.993 233.786 259.993C234.284 259.993 234.689 260.381 234.689 260.859C234.689 261.337 234.284 261.725 233.786 261.725ZM234.467 258.415H225.532C225.288 258.415 225.101 258.206 225.139 257.975L225.682 254.611C225.747 254.207 226.111 253.908 226.538 253.908H233.46C233.887 253.908 234.25 254.207 234.316 254.611L234.859 257.975C234.897 258.206 234.71 258.415 234.466 258.415H234.467Z" fill="white"/>
<g filter="url(#filter1_f_545_2026)">
<ellipse cx="191" cy="334.034" rx="4" ry="1" fill="#151515"/>
</g>
<path fill-rule="evenodd" clip-rule="evenodd" d="M183 307.034C181.895 307.034 181 307.93 181 309.034V325.034C181 326.139 181.895 327.034 183 327.034H188.228L190.044 332.93C190.334 333.871 191.666 333.871 191.955 332.93L193.771 327.034H199C200.105 327.034 201 326.139 201 325.034V309.034C201 307.93 200.105 307.034 199 307.034H183Z" fill="#151515"/>
<path d="M196.626 313.805L196.351 311.831C196.351 311.831 196.246 310.861 193.527 310.294C191.862 309.947 190.136 309.947 188.472 310.294C185.752 310.861 185.647 311.831 185.647 311.831L185.371 313.805C185.124 315.579 185 317.368 185 319.158V322.034C185 322.208 185.148 322.35 185.33 322.35H186.171V323.128C186.171 323.628 186.594 324.034 187.117 324.034C187.639 324.034 188.062 323.628 188.062 323.128V322.35H193.938V323.128C193.938 323.628 194.361 324.034 194.883 324.034C195.406 324.034 195.829 323.628 195.829 323.128V322.35H196.67C196.852 322.35 197 322.208 197 322.034V319.158C197 317.368 196.876 315.579 196.629 313.805H196.626ZM187.897 311.605C187.897 311.311 188.145 311.073 188.451 311.073H193.547C193.854 311.073 194.102 311.311 194.102 311.605C194.102 311.898 193.854 312.136 193.547 312.136H188.451C188.145 312.136 187.897 311.898 187.897 311.605ZM187.213 320.725C186.713 320.725 186.31 320.337 186.31 319.859C186.31 319.381 186.714 318.993 187.213 318.993C187.711 318.993 188.115 319.381 188.115 319.859C188.115 320.337 187.711 320.725 187.213 320.725ZM194.786 320.725C194.287 320.725 193.883 320.337 193.883 319.859C193.883 319.381 194.288 318.993 194.786 318.993C195.284 318.993 195.689 319.381 195.689 319.859C195.689 320.337 195.284 320.725 194.786 320.725ZM195.467 317.415H186.532C186.288 317.415 186.101 317.206 186.139 316.975L186.682 313.611C186.747 313.207 187.111 312.908 187.538 312.908H194.46C194.887 312.908 195.25 313.207 195.316 313.611L195.859 316.975C195.897 317.206 195.71 317.415 195.466 317.415H195.467Z" fill="white"/>
<g filter="url(#filter2_f_545_2026)">
<ellipse cx="178" cy="212.034" rx="4" ry="1" fill="#151515"/>
</g>
<path fill-rule="evenodd" clip-rule="evenodd" d="M170 185.034C168.895 185.034 168 185.93 168 187.034V203.034C168 204.139 168.895 205.034 170 205.034H175.228L177.044 210.93C177.334 211.871 178.666 211.871 178.955 210.93L180.771 205.034H186C187.105 205.034 188 204.139 188 203.034V187.034C188 185.93 187.105 185.034 186 185.034H170Z" fill="#151515"/>
<path d="M183.626 191.805L183.351 189.831C183.351 189.831 183.246 188.861 180.527 188.294C178.862 187.947 177.136 187.947 175.472 188.294C172.752 188.861 172.647 189.831 172.647 189.831L172.371 191.805C172.124 193.579 172 195.368 172 197.158V200.034C172 200.208 172.148 200.35 172.33 200.35H173.171V201.128C173.171 201.628 173.594 202.034 174.117 202.034C174.639 202.034 175.062 201.628 175.062 201.128V200.35H180.938V201.128C180.938 201.628 181.361 202.034 181.883 202.034C182.406 202.034 182.829 201.628 182.829 201.128V200.35H183.67C183.852 200.35 184 200.208 184 200.034V197.158C184 195.368 183.876 193.579 183.629 191.805H183.626ZM174.897 189.605C174.897 189.311 175.145 189.073 175.451 189.073H180.547C180.854 189.073 181.102 189.311 181.102 189.605C181.102 189.898 180.854 190.136 180.547 190.136H175.451C175.145 190.136 174.897 189.898 174.897 189.605ZM174.213 198.725C173.713 198.725 173.31 198.337 173.31 197.859C173.31 197.381 173.714 196.993 174.213 196.993C174.711 196.993 175.115 197.381 175.115 197.859C175.115 198.337 174.711 198.725 174.213 198.725ZM181.786 198.725C181.287 198.725 180.883 198.337 180.883 197.859C180.883 197.381 181.288 196.993 181.786 196.993C182.284 196.993 182.689 197.381 182.689 197.859C182.689 198.337 182.284 198.725 181.786 198.725ZM182.467 195.415H173.532C173.288 195.415 173.101 195.206 173.139 194.975L173.682 191.611C173.747 191.207 174.111 190.908 174.538 190.908H181.46C181.887 190.908 182.25 191.207 182.316 191.611L182.859 194.975C182.897 195.206 182.71 195.415 182.466 195.415H182.467Z" fill="white"/>
<g filter="url(#filter3_f_545_2026)">
<ellipse cx="214" cy="156.034" rx="4" ry="1" fill="#151515"/>
</g>
<path fill-rule="evenodd" clip-rule="evenodd" d="M206 129.034C204.895 129.034 204 129.93 204 131.034V147.034C204 148.139 204.895 149.034 206 149.034H211.228L213.044 154.93C213.334 155.871 214.666 155.871 214.955 154.93L216.771 149.034H222C223.105 149.034 224 148.139 224 147.034V131.034C224 129.93 223.105 129.034 222 129.034H206Z" fill="#151515"/>
<path d="M219.626 135.805L219.351 133.831C219.351 133.831 219.246 132.861 216.527 132.294C214.862 131.947 213.136 131.947 211.472 132.294C208.752 132.861 208.647 133.831 208.647 133.831L208.371 135.805C208.124 137.579 208 139.368 208 141.158V144.034C208 144.208 208.148 144.35 208.33 144.35H209.171V145.128C209.171 145.628 209.594 146.034 210.117 146.034C210.639 146.034 211.062 145.628 211.062 145.128V144.35H216.938V145.128C216.938 145.628 217.361 146.034 217.883 146.034C218.406 146.034 218.829 145.628 218.829 145.128V144.35H219.67C219.852 144.35 220 144.208 220 144.034V141.158C220 139.368 219.876 137.579 219.629 135.805H219.626ZM210.897 133.605C210.897 133.311 211.145 133.073 211.451 133.073H216.547C216.854 133.073 217.102 133.311 217.102 133.605C217.102 133.898 216.854 134.136 216.547 134.136H211.451C211.145 134.136 210.897 133.898 210.897 133.605ZM210.213 142.725C209.713 142.725 209.31 142.337 209.31 141.859C209.31 141.381 209.714 140.993 210.213 140.993C210.711 140.993 211.115 141.381 211.115 141.859C211.115 142.337 210.711 142.725 210.213 142.725ZM217.786 142.725C217.287 142.725 216.883 142.337 216.883 141.859C216.883 141.381 217.288 140.993 217.786 140.993C218.284 140.993 218.689 141.381 218.689 141.859C218.689 142.337 218.284 142.725 217.786 142.725ZM218.467 139.415H209.532C209.288 139.415 209.101 139.206 209.139 138.975L209.682 135.611C209.747 135.207 210.111 134.908 210.538 134.908H217.46C217.887 134.908 218.25 135.207 218.316 135.611L218.859 138.975C218.897 139.206 218.71 139.415 218.466 139.415H218.467Z" fill="white"/>
<g filter="url(#filter4_f_545_2026)">
<ellipse cx="300" cy="192.034" rx="4" ry="1" fill="#151515"/>
</g>
<path fill-rule="evenodd" clip-rule="evenodd" d="M292 165.034C290.895 165.034 290 165.93 290 167.034V183.034C290 184.139 290.895 185.034 292 185.034H297.228L299.044 190.93C299.334 191.871 300.666 191.871 300.955 190.93L302.771 185.034H308C309.105 185.034 310 184.139 310 183.034V167.034C310 165.93 309.105 165.034 308 165.034H292Z" fill="#151515"/>
<path d="M305.626 171.805L305.351 169.831C305.351 169.831 305.246 168.861 302.527 168.294C300.862 167.947 299.136 167.947 297.472 168.294C294.752 168.861 294.647 169.831 294.647 169.831L294.371 171.805C294.124 173.579 294 175.368 294 177.158V180.034C294 180.208 294.148 180.35 294.33 180.35H295.171V181.128C295.171 181.628 295.594 182.034 296.117 182.034C296.639 182.034 297.062 181.628 297.062 181.128V180.35H302.938V181.128C302.938 181.628 303.361 182.034 303.883 182.034C304.406 182.034 304.829 181.628 304.829 181.128V180.35H305.67C305.852 180.35 306 180.208 306 180.034V177.158C306 175.368 305.876 173.579 305.629 171.805H305.626ZM296.897 169.605C296.897 169.311 297.145 169.073 297.451 169.073H302.547C302.854 169.073 303.102 169.311 303.102 169.605C303.102 169.898 302.854 170.136 302.547 170.136H297.451C297.145 170.136 296.897 169.898 296.897 169.605ZM296.213 178.725C295.713 178.725 295.31 178.337 295.31 177.859C295.31 177.381 295.714 176.993 296.213 176.993C296.711 176.993 297.115 177.381 297.115 177.859C297.115 178.337 296.711 178.725 296.213 178.725ZM303.786 178.725C303.287 178.725 302.883 178.337 302.883 177.859C302.883 177.381 303.288 176.993 303.786 176.993C304.284 176.993 304.689 177.381 304.689 177.859C304.689 178.337 304.284 178.725 303.786 178.725ZM304.467 175.415H295.532C295.288 175.415 295.101 175.206 295.139 174.975L295.682 171.611C295.747 171.207 296.111 170.908 296.538 170.908H303.46C303.887 170.908 304.25 171.207 304.316 171.611L304.859 174.975C304.897 175.206 304.71 175.415 304.466 175.415H304.467Z" fill="white"/>
<g filter="url(#filter5_f_545_2026)">
<ellipse cx="302" cy="147.034" rx="4" ry="1" fill="#151515"/>
</g>
<path fill-rule="evenodd" clip-rule="evenodd" d="M294 120.034C292.895 120.034 292 120.93 292 122.034V138.034C292 139.139 292.895 140.034 294 140.034H299.228L301.044 145.93C301.334 146.871 302.666 146.871 302.955 145.93L304.771 140.034H310C311.105 140.034 312 139.139 312 138.034V122.034C312 120.93 311.105 120.034 310 120.034H294Z" fill="#151515"/>
<path d="M307.626 126.805L307.351 124.831C307.351 124.831 307.246 123.861 304.527 123.294C302.862 122.947 301.136 122.947 299.472 123.294C296.752 123.861 296.647 124.831 296.647 124.831L296.371 126.805C296.124 128.579 296 130.368 296 132.158V135.034C296 135.208 296.148 135.35 296.33 135.35H297.171V136.128C297.171 136.628 297.594 137.034 298.117 137.034C298.639 137.034 299.062 136.628 299.062 136.128V135.35H304.938V136.128C304.938 136.628 305.361 137.034 305.883 137.034C306.406 137.034 306.829 136.628 306.829 136.128V135.35H307.67C307.852 135.35 308 135.208 308 135.034V132.158C308 130.368 307.876 128.579 307.629 126.805H307.626ZM298.897 124.605C298.897 124.311 299.145 124.073 299.451 124.073H304.547C304.854 124.073 305.102 124.311 305.102 124.605C305.102 124.898 304.854 125.136 304.547 125.136H299.451C299.145 125.136 298.897 124.898 298.897 124.605ZM298.213 133.725C297.713 133.725 297.31 133.337 297.31 132.859C297.31 132.381 297.714 131.993 298.213 131.993C298.711 131.993 299.115 132.381 299.115 132.859C299.115 133.337 298.711 133.725 298.213 133.725ZM305.786 133.725C305.287 133.725 304.883 133.337 304.883 132.859C304.883 132.381 305.288 131.993 305.786 131.993C306.284 131.993 306.689 132.381 306.689 132.859C306.689 133.337 306.284 133.725 305.786 133.725ZM306.467 130.415H297.532C297.288 130.415 297.101 130.206 297.139 129.975L297.682 126.611C297.747 126.207 298.111 125.908 298.538 125.908H305.46C305.887 125.908 306.25 126.207 306.316 126.611L306.859 129.975C306.897 130.206 306.71 130.415 306.466 130.415H306.467Z" fill="white"/>
<g filter="url(#filter6_f_545_2026)">
<ellipse cx="271" cy="142.034" rx="4" ry="1" fill="#151515"/>
</g>
<path fill-rule="evenodd" clip-rule="evenodd" d="M263 115.034C261.895 115.034 261 115.93 261 117.034V133.034C261 134.139 261.895 135.034 263 135.034H268.228L270.044 140.93C270.334 141.871 271.666 141.871 271.955 140.93L273.771 135.034H279C280.105 135.034 281 134.139 281 133.034V117.034C281 115.93 280.105 115.034 279 115.034H263Z" fill="#151515"/>
<path d="M276.626 121.805L276.351 119.831C276.351 119.831 276.246 118.861 273.527 118.294C271.862 117.947 270.136 117.947 268.472 118.294C265.752 118.861 265.647 119.831 265.647 119.831L265.371 121.805C265.124 123.579 265 125.368 265 127.158V130.034C265 130.208 265.148 130.35 265.33 130.35H266.171V131.128C266.171 131.628 266.594 132.034 267.117 132.034C267.639 132.034 268.062 131.628 268.062 131.128V130.35H273.938V131.128C273.938 131.628 274.361 132.034 274.883 132.034C275.406 132.034 275.829 131.628 275.829 131.128V130.35H276.67C276.852 130.35 277 130.208 277 130.034V127.158C277 125.368 276.876 123.579 276.629 121.805H276.626ZM267.897 119.605C267.897 119.311 268.145 119.073 268.451 119.073H273.547C273.854 119.073 274.102 119.311 274.102 119.605C274.102 119.898 273.854 120.136 273.547 120.136H268.451C268.145 120.136 267.897 119.898 267.897 119.605ZM267.213 128.725C266.713 128.725 266.31 128.337 266.31 127.859C266.31 127.381 266.714 126.993 267.213 126.993C267.711 126.993 268.115 127.381 268.115 127.859C268.115 128.337 267.711 128.725 267.213 128.725ZM274.786 128.725C274.287 128.725 273.883 128.337 273.883 127.859C273.883 127.381 274.288 126.993 274.786 126.993C275.284 126.993 275.689 127.381 275.689 127.859C275.689 128.337 275.284 128.725 274.786 128.725ZM275.467 125.415H266.532C266.288 125.415 266.101 125.206 266.139 124.975L266.682 121.611C266.747 121.207 267.111 120.908 267.538 120.908H274.46C274.887 120.908 275.25 121.207 275.316 121.611L275.859 124.975C275.897 125.206 275.71 125.415 275.466 125.415H275.467Z" fill="white"/>
<g filter="url(#filter7_f_545_2026)">
<ellipse cx="287" cy="41.0342" rx="4" ry="1" fill="#151515"/>
</g>
<path fill-rule="evenodd" clip-rule="evenodd" d="M279 14.0342C277.895 14.0342 277 14.9296 277 16.0342V32.0342C277 33.1388 277.895 34.0342 279 34.0342H284.228L286.044 39.9304C286.334 40.8713 287.666 40.8714 287.955 39.9304L289.771 34.0342H295C296.105 34.0342 297 33.1387 297 32.0342V16.0342C297 14.9296 296.105 14.0342 295 14.0342H279Z" fill="#151515"/>
<path d="M292.626 20.8053L292.351 18.8307C292.351 18.8307 292.246 17.8614 289.527 17.2945C287.862 16.9474 286.136 16.9474 284.472 17.2945C281.752 17.8614 281.647 18.8307 281.647 18.8307L281.371 20.8053C281.124 22.5794 281 24.3679 281 26.1579V29.034C281 29.2083 281.148 29.35 281.33 29.35H282.171V30.1278C282.171 30.6283 282.594 31.0342 283.117 31.0342C283.639 31.0342 284.062 30.6283 284.062 30.1278V29.35H289.938V30.1278C289.938 30.6283 290.361 31.0342 290.883 31.0342C291.406 31.0342 291.829 30.6283 291.829 30.1278V29.35H292.67C292.852 29.35 293 29.2083 293 29.034V26.1579C293 24.3679 292.876 22.5794 292.629 20.8053H292.626ZM283.897 18.6046C283.897 18.3108 284.145 18.073 284.451 18.073H289.547C289.854 18.073 290.102 18.3108 290.102 18.6046C290.102 18.8985 289.854 19.1363 289.547 19.1363H284.451C284.145 19.1363 283.897 18.8985 283.897 18.6046ZM283.213 27.7246C282.713 27.7246 282.31 27.3367 282.31 26.859C282.31 26.3812 282.714 25.9934 283.213 25.9934C283.711 25.9934 284.115 26.3812 284.115 26.859C284.115 27.3367 283.711 27.7246 283.213 27.7246ZM290.786 27.7246C290.287 27.7246 289.883 27.3367 289.883 26.859C289.883 26.3812 290.288 25.9934 290.786 25.9934C291.284 25.9934 291.689 26.3812 291.689 26.859C291.689 27.3367 291.284 27.7246 290.786 27.7246ZM291.467 24.415H282.532C282.288 24.415 282.101 24.2062 282.139 23.9752L282.682 20.611C282.747 20.2066 283.111 19.9079 283.538 19.9079H290.46C290.887 19.9079 291.25 20.2066 291.316 20.611L291.859 23.9752C291.897 24.2062 291.71 24.415 291.466 24.415H291.467Z" fill="white"/>
<defs>
<filter id="filter0_f_545_2026" x="222" y="270.034" width="16" height="10" filterUnits="userSpaceOnUse" color-interpolation-filters="sRGB">
<feFlood flood-opacity="0" result="BackgroundImageFix"/>
<feBlend mode="normal" in="SourceGraphic" in2="BackgroundImageFix" result="shape"/>
<feGaussianBlur stdDeviation="2" result="effect1_foregroundBlur_545_2026"/>
</filter>
<filter id="filter1_f_545_2026" x="183" y="329.034" width="16" height="10" filterUnits="userSpaceOnUse" color-interpolation-filters="sRGB">
<feFlood flood-opacity="0" result="BackgroundImageFix"/>
<feBlend mode="normal" in="SourceGraphic" in2="BackgroundImageFix" result="shape"/>
<feGaussianBlur stdDeviation="2" result="effect1_foregroundBlur_545_2026"/>
</filter>
<filter id="filter2_f_545_2026" x="170" y="207.034" width="16" height="10" filterUnits="userSpaceOnUse" color-interpolation-filters="sRGB">
<feFlood flood-opacity="0" result="BackgroundImageFix"/>
<feBlend mode="normal" in="SourceGraphic" in2="BackgroundImageFix" result="shape"/>
<feGaussianBlur stdDeviation="2" result="effect1_foregroundBlur_545_2026"/>
</filter>
<filter id="filter3_f_545_2026" x="206" y="151.034" width="16" height="10" filterUnits="userSpaceOnUse" color-interpolation-filters="sRGB">
<feFlood flood-opacity="0" result="BackgroundImageFix"/>
<feBlend mode="normal" in="SourceGraphic" in2="BackgroundImageFix" result="shape"/>
<feGaussianBlur stdDeviation="2" result="effect1_foregroundBlur_545_2026"/>
</filter>
<filter id="filter4_f_545_2026" x="292" y="187.034" width="16" height="10" filterUnits="userSpaceOnUse" color-interpolation-filters="sRGB">
<feFlood flood-opacity="0" result="BackgroundImageFix"/>
<feBlend mode="normal" in="SourceGraphic" in2="BackgroundImageFix" result="shape"/>
<feGaussianBlur stdDeviation="2" result="effect1_foregroundBlur_545_2026"/>
</filter>
<filter id="filter5_f_545_2026" x="294" y="142.034" width="16" height="10" filterUnits="userSpaceOnUse" color-interpolation-filters="sRGB">
<feFlood flood-opacity="0" result="BackgroundImageFix"/>
<feBlend mode="normal" in="SourceGraphic" in2="BackgroundImageFix" result="shape"/>
<feGaussianBlur stdDeviation="2" result="effect1_foregroundBlur_545_2026"/>
</filter>
<filter id="filter6_f_545_2026" x="263" y="137.034" width="16" height="10" filterUnits="userSpaceOnUse" color-interpolation-filters="sRGB">
<feFlood flood-opacity="0" result="BackgroundImageFix"/>
<feBlend mode="normal" in="SourceGraphic" in2="BackgroundImageFix" result="shape"/>
<feGaussianBlur stdDeviation="2" result="effect1_foregroundBlur_545_2026"/>
</filter>
<filter id="filter7_f_545_2026" x="279" y="36.0342" width="16" height="10" filterUnits="userSpaceOnUse" color-interpolation-filters="sRGB">
<feFlood flood-opacity="0" result="BackgroundImageFix"/>
<feBlend mode="normal" in="SourceGraphic" in2="BackgroundImageFix" result="shape"/>
<feGaussianBlur stdDeviation="2" result="effect1_foregroundBlur_545_2026"/>
</filter>
</defs>
</svg>
