<svg width="336" height="397" viewBox="0 0 336 397" fill="none" xmlns="http://www.w3.org/2000/svg">
<g filter="url(#filter0_f_545_2027)">
<ellipse cx="214" cy="158.034" rx="4" ry="1" fill="#151515"/>
</g>
<path fill-rule="evenodd" clip-rule="evenodd" d="M206 131.034C204.895 131.034 204 131.93 204 133.034V149.034C204 150.139 204.895 151.034 206 151.034H211.228L213.044 156.93C213.334 157.871 214.666 157.871 214.955 156.93L216.771 151.034H222C223.105 151.034 224 150.139 224 149.034V133.034C224 131.93 223.105 131.034 222 131.034H206Z" fill="#151515"/>
<path d="M219.626 137.805L219.351 135.831C219.351 135.831 219.246 134.861 216.527 134.294C214.862 133.947 213.136 133.947 211.472 134.294C208.752 134.861 208.647 135.831 208.647 135.831L208.371 137.805C208.124 139.579 208 141.368 208 143.158V146.034C208 146.208 208.148 146.35 208.33 146.35H209.171V147.128C209.171 147.628 209.594 148.034 210.117 148.034C210.639 148.034 211.062 147.628 211.062 147.128V146.35H216.938V147.128C216.938 147.628 217.361 148.034 217.883 148.034C218.406 148.034 218.829 147.628 218.829 147.128V146.35H219.67C219.852 146.35 220 146.208 220 146.034V143.158C220 141.368 219.876 139.579 219.629 137.805H219.626ZM210.897 135.605C210.897 135.311 211.145 135.073 211.451 135.073H216.547C216.854 135.073 217.102 135.311 217.102 135.605C217.102 135.898 216.854 136.136 216.547 136.136H211.451C211.145 136.136 210.897 135.898 210.897 135.605ZM210.213 144.725C209.713 144.725 209.31 144.337 209.31 143.859C209.31 143.381 209.714 142.993 210.213 142.993C210.711 142.993 211.115 143.381 211.115 143.859C211.115 144.337 210.711 144.725 210.213 144.725ZM217.786 144.725C217.287 144.725 216.883 144.337 216.883 143.859C216.883 143.381 217.288 142.993 217.786 142.993C218.284 142.993 218.689 143.381 218.689 143.859C218.689 144.337 218.284 144.725 217.786 144.725ZM218.467 141.415H209.532C209.288 141.415 209.101 141.206 209.139 140.975L209.682 137.611C209.747 137.207 210.111 136.908 210.538 136.908H217.46C217.887 136.908 218.25 137.207 218.316 137.611L218.859 140.975C218.897 141.206 218.71 141.415 218.466 141.415H218.467Z" fill="white"/>
<g filter="url(#filter1_f_545_2027)">
<ellipse cx="178" cy="212.034" rx="4" ry="1" fill="#151515"/>
</g>
<path fill-rule="evenodd" clip-rule="evenodd" d="M170 185.034C168.895 185.034 168 185.93 168 187.034V203.034C168 204.139 168.895 205.034 170 205.034H175.228L177.044 210.93C177.334 211.871 178.666 211.871 178.955 210.93L180.771 205.034H186C187.105 205.034 188 204.139 188 203.034V187.034C188 185.93 187.105 185.034 186 185.034H170Z" fill="#151515"/>
<path d="M183.626 191.805L183.351 189.831C183.351 189.831 183.246 188.861 180.527 188.294C178.862 187.947 177.136 187.947 175.472 188.294C172.752 188.861 172.647 189.831 172.647 189.831L172.371 191.805C172.124 193.579 172 195.368 172 197.158V200.034C172 200.208 172.148 200.35 172.33 200.35H173.171V201.128C173.171 201.628 173.594 202.034 174.117 202.034C174.639 202.034 175.062 201.628 175.062 201.128V200.35H180.938V201.128C180.938 201.628 181.361 202.034 181.883 202.034C182.406 202.034 182.829 201.628 182.829 201.128V200.35H183.67C183.852 200.35 184 200.208 184 200.034V197.158C184 195.368 183.876 193.579 183.629 191.805H183.626ZM174.897 189.605C174.897 189.311 175.145 189.073 175.451 189.073H180.547C180.854 189.073 181.102 189.311 181.102 189.605C181.102 189.898 180.854 190.136 180.547 190.136H175.451C175.145 190.136 174.897 189.898 174.897 189.605ZM174.213 198.725C173.713 198.725 173.31 198.337 173.31 197.859C173.31 197.381 173.714 196.993 174.213 196.993C174.711 196.993 175.115 197.381 175.115 197.859C175.115 198.337 174.711 198.725 174.213 198.725ZM181.786 198.725C181.287 198.725 180.883 198.337 180.883 197.859C180.883 197.381 181.288 196.993 181.786 196.993C182.284 196.993 182.689 197.381 182.689 197.859C182.689 198.337 182.284 198.725 181.786 198.725ZM182.467 195.415H173.532C173.288 195.415 173.101 195.206 173.139 194.975L173.682 191.611C173.747 191.207 174.111 190.908 174.538 190.908H181.46C181.887 190.908 182.25 191.207 182.316 191.611L182.859 194.975C182.897 195.206 182.71 195.415 182.466 195.415H182.467Z" fill="white"/>
<g filter="url(#filter2_f_545_2027)">
<ellipse cx="191" cy="334.034" rx="4" ry="1" fill="#151515"/>
</g>
<path fill-rule="evenodd" clip-rule="evenodd" d="M183 307.034C181.895 307.034 181 307.93 181 309.034V325.034C181 326.139 181.895 327.034 183 327.034H188.228L190.044 332.93C190.334 333.871 191.666 333.871 191.955 332.93L193.771 327.034H199C200.105 327.034 201 326.139 201 325.034V309.034C201 307.93 200.105 307.034 199 307.034H183Z" fill="#151515"/>
<path d="M196.626 313.805L196.351 311.831C196.351 311.831 196.246 310.861 193.527 310.294C191.862 309.947 190.136 309.947 188.472 310.294C185.752 310.861 185.647 311.831 185.647 311.831L185.371 313.805C185.124 315.579 185 317.368 185 319.158V322.034C185 322.208 185.148 322.35 185.33 322.35H186.171V323.128C186.171 323.628 186.594 324.034 187.117 324.034C187.639 324.034 188.062 323.628 188.062 323.128V322.35H193.938V323.128C193.938 323.628 194.361 324.034 194.883 324.034C195.406 324.034 195.829 323.628 195.829 323.128V322.35H196.67C196.852 322.35 197 322.208 197 322.034V319.158C197 317.368 196.876 315.579 196.629 313.805H196.626ZM187.897 311.605C187.897 311.311 188.145 311.073 188.451 311.073H193.547C193.854 311.073 194.102 311.311 194.102 311.605C194.102 311.898 193.854 312.136 193.547 312.136H188.451C188.145 312.136 187.897 311.898 187.897 311.605ZM187.213 320.725C186.713 320.725 186.31 320.337 186.31 319.859C186.31 319.381 186.714 318.993 187.213 318.993C187.711 318.993 188.115 319.381 188.115 319.859C188.115 320.337 187.711 320.725 187.213 320.725ZM194.786 320.725C194.287 320.725 193.883 320.337 193.883 319.859C193.883 319.381 194.288 318.993 194.786 318.993C195.284 318.993 195.689 319.381 195.689 319.859C195.689 320.337 195.284 320.725 194.786 320.725ZM195.467 317.415H186.532C186.288 317.415 186.101 317.206 186.139 316.975L186.682 313.611C186.747 313.207 187.111 312.908 187.538 312.908H194.46C194.887 312.908 195.25 313.207 195.316 313.611L195.859 316.975C195.897 317.206 195.71 317.415 195.466 317.415H195.467Z" fill="white"/>
<defs>
<filter id="filter0_f_545_2027" x="206" y="153.034" width="16" height="10" filterUnits="userSpaceOnUse" color-interpolation-filters="sRGB">
<feFlood flood-opacity="0" result="BackgroundImageFix"/>
<feBlend mode="normal" in="SourceGraphic" in2="BackgroundImageFix" result="shape"/>
<feGaussianBlur stdDeviation="2" result="effect1_foregroundBlur_545_2027"/>
</filter>
<filter id="filter1_f_545_2027" x="170" y="207.034" width="16" height="10" filterUnits="userSpaceOnUse" color-interpolation-filters="sRGB">
<feFlood flood-opacity="0" result="BackgroundImageFix"/>
<feBlend mode="normal" in="SourceGraphic" in2="BackgroundImageFix" result="shape"/>
<feGaussianBlur stdDeviation="2" result="effect1_foregroundBlur_545_2027"/>
</filter>
<filter id="filter2_f_545_2027" x="183" y="329.034" width="16" height="10" filterUnits="userSpaceOnUse" color-interpolation-filters="sRGB">
<feFlood flood-opacity="0" result="BackgroundImageFix"/>
<feBlend mode="normal" in="SourceGraphic" in2="BackgroundImageFix" result="shape"/>
<feGaussianBlur stdDeviation="2" result="effect1_foregroundBlur_545_2027"/>
</filter>
</defs>
</svg>
