<svg width="336" height="396" viewBox="0 0 336 396" fill="none" xmlns="http://www.w3.org/2000/svg">
<g filter="url(#filter0_f_525_2292)">
<ellipse cx="208" cy="278" rx="4" ry="1" fill="#151515"/>
</g>
<path fill-rule="evenodd" clip-rule="evenodd" d="M208 257C203.6 257 200 260.6 200 265C200 270.067 206.163 275.75 207.171 276.68C207.237 276.741 207.281 276.781 207.3 276.8C207.5 276.9 207.8 277 208 277C208.2 277 208.5 276.9 208.7 276.8C208.719 276.781 208.763 276.741 208.829 276.68C209.837 275.75 216 270.067 216 265C216 260.6 212.4 257 208 257ZM208 261C205.8 261 204 262.8 204 265C204 267.2 205.8 269 208 269C210.2 269 212 267.2 212 265C212 262.8 210.2 261 208 261Z" fill="#151515"/>
<g filter="url(#filter1_f_525_2292)">
<ellipse cx="208" cy="278" rx="4" ry="1" fill="#151515"/>
</g>
<path fill-rule="evenodd" clip-rule="evenodd" d="M208 257C203.6 257 200 260.6 200 265C200 270.067 206.163 275.75 207.171 276.68C207.237 276.741 207.281 276.781 207.3 276.8C207.5 276.9 207.8 277 208 277C208.2 277 208.5 276.9 208.7 276.8C208.719 276.781 208.763 276.741 208.829 276.68C209.837 275.75 216 270.067 216 265C216 260.6 212.4 257 208 257ZM208 261C205.8 261 204 262.8 204 265C204 267.2 205.8 269 208 269C210.2 269 212 267.2 212 265C212 262.8 210.2 261 208 261Z" fill="#151515"/>
<g filter="url(#filter2_f_525_2292)">
<ellipse cx="156" cy="236" rx="4" ry="1" fill="#151515"/>
</g>
<path fill-rule="evenodd" clip-rule="evenodd" d="M156 215C151.6 215 148 218.6 148 223C148 228.067 154.163 233.75 155.171 234.68C155.237 234.741 155.281 234.781 155.3 234.8C155.5 234.9 155.8 235 156 235C156.2 235 156.5 234.9 156.7 234.8C156.719 234.781 156.763 234.741 156.829 234.68C157.837 233.75 164 228.067 164 223C164 218.6 160.4 215 156 215ZM156 219C153.8 219 152 220.8 152 223C152 225.2 153.8 227 156 227C158.2 227 160 225.2 160 223C160 220.8 158.2 219 156 219Z" fill="#151515"/>
<g filter="url(#filter3_f_525_2292)">
<ellipse cx="253" cy="159" rx="4" ry="1" fill="#151515"/>
</g>
<path fill-rule="evenodd" clip-rule="evenodd" d="M253 138C248.6 138 245 141.6 245 146C245 151.067 251.163 156.75 252.171 157.68C252.237 157.741 252.281 157.781 252.3 157.8C252.5 157.9 252.8 158 253 158C253.2 158 253.5 157.9 253.7 157.8C253.719 157.781 253.763 157.741 253.829 157.68C254.837 156.75 261 151.067 261 146C261 141.6 257.4 138 253 138ZM253 142C250.8 142 249 143.8 249 146C249 148.2 250.8 150 253 150C255.2 150 257 148.2 257 146C257 143.8 255.2 142 253 142Z" fill="#151515"/>
<g filter="url(#filter4_f_525_2292)">
<ellipse cx="200" cy="226" rx="4" ry="1" fill="#151515"/>
</g>
<path fill-rule="evenodd" clip-rule="evenodd" d="M200 205C195.6 205 192 208.6 192 213C192 218.067 198.163 223.75 199.171 224.68C199.237 224.741 199.281 224.781 199.3 224.8C199.5 224.9 199.8 225 200 225C200.2 225 200.5 224.9 200.7 224.8C200.719 224.781 200.763 224.741 200.829 224.68C201.837 223.75 208 218.067 208 213C208 208.6 204.4 205 200 205ZM200 209C197.8 209 196 210.8 196 213C196 215.2 197.8 217 200 217C202.2 217 204 215.2 204 213C204 210.8 202.2 209 200 209Z" fill="#151515"/>
<g filter="url(#filter5_f_525_2292)">
<ellipse cx="184" cy="218" rx="4" ry="1" fill="#151515"/>
</g>
<path fill-rule="evenodd" clip-rule="evenodd" d="M184 197C179.6 197 176 200.6 176 205C176 210.067 182.163 215.75 183.171 216.68C183.237 216.741 183.281 216.781 183.3 216.8C183.5 216.9 183.8 217 184 217C184.2 217 184.5 216.9 184.7 216.8C184.719 216.781 184.763 216.741 184.829 216.68C185.837 215.75 192 210.067 192 205C192 200.6 188.4 197 184 197ZM184 201C181.8 201 180 202.8 180 205C180 207.2 181.8 209 184 209C186.2 209 188 207.2 188 205C188 202.8 186.2 201 184 201Z" fill="#151515"/>
<g filter="url(#filter6_f_525_2292)">
<ellipse cx="279" cy="243" rx="4" ry="1" fill="#151515"/>
</g>
<path fill-rule="evenodd" clip-rule="evenodd" d="M279 222C274.6 222 271 225.6 271 230C271 235.067 277.163 240.75 278.171 241.68C278.237 241.741 278.281 241.781 278.3 241.8C278.5 241.9 278.8 242 279 242C279.2 242 279.5 241.9 279.7 241.8C279.719 241.781 279.763 241.741 279.829 241.68C280.837 240.75 287 235.067 287 230C287 225.6 283.4 222 279 222ZM279 226C276.8 226 275 227.8 275 230C275 232.2 276.8 234 279 234C281.2 234 283 232.2 283 230C283 227.8 281.2 226 279 226Z" fill="#151515"/>
<g filter="url(#filter7_f_525_2292)">
<ellipse cx="285" cy="208" rx="4" ry="1" fill="#151515"/>
</g>
<path fill-rule="evenodd" clip-rule="evenodd" d="M285 187C280.6 187 277 190.6 277 195C277 200.067 283.163 205.75 284.171 206.68C284.237 206.741 284.281 206.781 284.3 206.8C284.5 206.9 284.8 207 285 207C285.2 207 285.5 206.9 285.7 206.8C285.719 206.781 285.763 206.741 285.829 206.68C286.837 205.75 293 200.067 293 195C293 190.6 289.4 187 285 187ZM285 191C282.8 191 281 192.8 281 195C281 197.2 282.8 199 285 199C287.2 199 289 197.2 289 195C289 192.8 287.2 191 285 191Z" fill="#151515"/>
<path d="M97.5508 188.656V189.57H89.0078V188.656H92.7461V187.449H93.8477V188.656H97.5508ZM88.5156 195.207V194.293H98.125V195.207H93.8477V198.008H92.7461V195.207H88.5156ZM89.8047 191.879C89.7988 190.73 91.1113 190.104 93.2969 190.109C95.4766 190.104 96.7891 190.73 96.7891 191.879C96.7891 192.998 95.4766 193.631 93.2969 193.637C91.1113 193.631 89.7988 192.998 89.8047 191.879ZM90.9531 191.879C90.9531 192.465 91.791 192.799 93.2969 192.793C94.7969 192.799 95.6348 192.465 95.6406 191.879C95.6348 191.275 94.7969 190.941 93.2969 190.941C91.791 190.941 90.9531 191.275 90.9531 191.879ZM108.484 192.805V193.707H104.312V195.746H103.211V193.707H98.875V192.805H108.484ZM100.07 197.773V194.75H101.184V196.871H107.418V197.773H100.07ZM100.105 191.715V187.988H107.242V191.715H100.105ZM101.195 190.836H106.141V188.867H101.195V190.836Z" fill="#151515"/>
<path d="M192.27 377.496V383.742H191.156V381.082H189.199V380.168H191.156V377.496H192.27ZM183.516 382.793C185.145 382.225 186.146 380.807 186.141 379.359V379.125H183.867V378.223H189.527V379.125H187.277V379.348C187.271 380.678 188.221 381.973 189.809 382.512L189.234 383.391C188.057 382.986 187.189 382.143 186.732 381.105C186.275 382.277 185.355 383.221 184.102 383.684L183.516 382.793ZM185.203 386.016C185.197 384.768 186.545 384.041 188.754 384.035C190.951 384.041 192.299 384.768 192.305 386.016C192.299 387.264 190.951 387.99 188.754 387.996C186.545 387.99 185.197 387.264 185.203 386.016ZM186.305 386.016C186.299 386.725 187.213 387.129 188.754 387.117C190.283 387.129 191.197 386.725 191.203 386.016C191.197 385.301 190.283 384.896 188.754 384.902C187.213 384.896 186.299 385.301 186.305 386.016ZM203.484 382.805V383.707H199.312V385.746H198.211V383.707H193.875V382.805H203.484ZM195.07 387.773V384.75H196.184V386.871H202.418V387.773H195.07ZM195.105 381.715V377.988H202.242V381.715H195.105ZM196.195 380.836H201.141V378.867H196.195V380.836Z" fill="#151515"/>
<defs>
<filter id="filter0_f_525_2292" x="200" y="273" width="16" height="10" filterUnits="userSpaceOnUse" color-interpolation-filters="sRGB">
<feFlood flood-opacity="0" result="BackgroundImageFix"/>
<feBlend mode="normal" in="SourceGraphic" in2="BackgroundImageFix" result="shape"/>
<feGaussianBlur stdDeviation="2" result="effect1_foregroundBlur_525_2292"/>
</filter>
<filter id="filter1_f_525_2292" x="200" y="273" width="16" height="10" filterUnits="userSpaceOnUse" color-interpolation-filters="sRGB">
<feFlood flood-opacity="0" result="BackgroundImageFix"/>
<feBlend mode="normal" in="SourceGraphic" in2="BackgroundImageFix" result="shape"/>
<feGaussianBlur stdDeviation="2" result="effect1_foregroundBlur_525_2292"/>
</filter>
<filter id="filter2_f_525_2292" x="148" y="231" width="16" height="10" filterUnits="userSpaceOnUse" color-interpolation-filters="sRGB">
<feFlood flood-opacity="0" result="BackgroundImageFix"/>
<feBlend mode="normal" in="SourceGraphic" in2="BackgroundImageFix" result="shape"/>
<feGaussianBlur stdDeviation="2" result="effect1_foregroundBlur_525_2292"/>
</filter>
<filter id="filter3_f_525_2292" x="245" y="154" width="16" height="10" filterUnits="userSpaceOnUse" color-interpolation-filters="sRGB">
<feFlood flood-opacity="0" result="BackgroundImageFix"/>
<feBlend mode="normal" in="SourceGraphic" in2="BackgroundImageFix" result="shape"/>
<feGaussianBlur stdDeviation="2" result="effect1_foregroundBlur_525_2292"/>
</filter>
<filter id="filter4_f_525_2292" x="192" y="221" width="16" height="10" filterUnits="userSpaceOnUse" color-interpolation-filters="sRGB">
<feFlood flood-opacity="0" result="BackgroundImageFix"/>
<feBlend mode="normal" in="SourceGraphic" in2="BackgroundImageFix" result="shape"/>
<feGaussianBlur stdDeviation="2" result="effect1_foregroundBlur_525_2292"/>
</filter>
<filter id="filter5_f_525_2292" x="176" y="213" width="16" height="10" filterUnits="userSpaceOnUse" color-interpolation-filters="sRGB">
<feFlood flood-opacity="0" result="BackgroundImageFix"/>
<feBlend mode="normal" in="SourceGraphic" in2="BackgroundImageFix" result="shape"/>
<feGaussianBlur stdDeviation="2" result="effect1_foregroundBlur_525_2292"/>
</filter>
<filter id="filter6_f_525_2292" x="271" y="238" width="16" height="10" filterUnits="userSpaceOnUse" color-interpolation-filters="sRGB">
<feFlood flood-opacity="0" result="BackgroundImageFix"/>
<feBlend mode="normal" in="SourceGraphic" in2="BackgroundImageFix" result="shape"/>
<feGaussianBlur stdDeviation="2" result="effect1_foregroundBlur_525_2292"/>
</filter>
<filter id="filter7_f_525_2292" x="277" y="203" width="16" height="10" filterUnits="userSpaceOnUse" color-interpolation-filters="sRGB">
<feFlood flood-opacity="0" result="BackgroundImageFix"/>
<feBlend mode="normal" in="SourceGraphic" in2="BackgroundImageFix" result="shape"/>
<feGaussianBlur stdDeviation="2" result="effect1_foregroundBlur_525_2292"/>
</filter>
</defs>
</svg>
