<svg width="336" height="396" viewBox="0 0 336 396" fill="none" xmlns="http://www.w3.org/2000/svg">
<g filter="url(#filter0_f_525_2261)">
<ellipse cx="192" cy="214" rx="4" ry="1" fill="#151515"/>
</g>
<path fill-rule="evenodd" clip-rule="evenodd" d="M192 193C187.6 193 184 196.6 184 201C184 206.067 190.163 211.75 191.171 212.68C191.237 212.741 191.281 212.781 191.3 212.8C191.5 212.9 191.8 213 192 213C192.2 213 192.5 212.9 192.7 212.8C192.719 212.781 192.763 212.741 192.829 212.68C193.837 211.75 200 206.067 200 201C200 196.6 196.4 193 192 193ZM192 197C189.8 197 188 198.8 188 201C188 203.2 189.8 205 192 205C194.2 205 196 203.2 196 201C196 198.8 194.2 197 192 197Z" fill="#151515"/>
<g filter="url(#filter1_f_525_2261)">
<ellipse cx="228" cy="201" rx="4" ry="1" fill="#151515"/>
</g>
<path fill-rule="evenodd" clip-rule="evenodd" d="M228 180C223.6 180 220 183.6 220 188C220 193.067 226.163 198.75 227.171 199.68C227.237 199.741 227.281 199.781 227.3 199.8C227.5 199.9 227.8 200 228 200C228.2 200 228.5 199.9 228.7 199.8C228.719 199.781 228.763 199.741 228.829 199.68C229.837 198.75 236 193.067 236 188C236 183.6 232.4 180 228 180ZM228 184C225.8 184 224 185.8 224 188C224 190.2 225.8 192 228 192C230.2 192 232 190.2 232 188C232 185.8 230.2 184 228 184Z" fill="#151515"/>
<g filter="url(#filter2_f_525_2261)">
<ellipse cx="233" cy="79.9658" rx="4" ry="1" fill="#151515"/>
</g>
<path fill-rule="evenodd" clip-rule="evenodd" d="M233 58.9658C228.6 58.9658 225 62.5658 225 66.9658C225 72.0326 231.163 77.7157 232.171 78.6456C232.237 78.7067 232.281 78.7473 232.3 78.7658C232.5 78.8658 232.8 78.9658 233 78.9658C233.2 78.9658 233.5 78.8658 233.7 78.7658C233.719 78.7473 233.763 78.7067 233.829 78.6456C234.837 77.7157 241 72.0326 241 66.9658C241 62.5658 237.4 58.9658 233 58.9658ZM233 62.9658C230.8 62.9658 229 64.7658 229 66.9658C229 69.1658 230.8 70.9658 233 70.9658C235.2 70.9658 237 69.1658 237 66.9658C237 64.7658 235.2 62.9658 233 62.9658Z" fill="#151515"/>
<g filter="url(#filter3_f_525_2261)">
<ellipse cx="176" cy="134.966" rx="4" ry="1" fill="#151515"/>
</g>
<path fill-rule="evenodd" clip-rule="evenodd" d="M176 113.966C171.6 113.966 168 117.566 168 121.966C168 127.033 174.163 132.716 175.171 133.646C175.237 133.707 175.281 133.747 175.3 133.766C175.5 133.866 175.8 133.966 176 133.966C176.2 133.966 176.5 133.866 176.7 133.766C176.719 133.747 176.763 133.707 176.829 133.646C177.837 132.716 184 127.033 184 121.966C184 117.566 180.4 113.966 176 113.966ZM176 117.966C173.8 117.966 172 119.766 172 121.966C172 124.166 173.8 125.966 176 125.966C178.2 125.966 180 124.166 180 121.966C180 119.766 178.2 117.966 176 117.966Z" fill="#151515"/>
<g filter="url(#filter4_f_525_2261)">
<ellipse cx="228" cy="163.966" rx="4" ry="1" fill="#151515"/>
</g>
<path fill-rule="evenodd" clip-rule="evenodd" d="M228 142.966C223.6 142.966 220 146.566 220 150.966C220 156.033 226.163 161.716 227.171 162.646C227.237 162.707 227.281 162.747 227.3 162.766C227.5 162.866 227.8 162.966 228 162.966C228.2 162.966 228.5 162.866 228.7 162.766C228.719 162.747 228.763 162.707 228.829 162.646C229.837 161.716 236 156.033 236 150.966C236 146.566 232.4 142.966 228 142.966ZM228 146.966C225.8 146.966 224 148.766 224 150.966C224 153.166 225.8 154.966 228 154.966C230.2 154.966 232 153.166 232 150.966C232 148.766 230.2 146.966 228 146.966Z" fill="#151515"/>
<path d="M97.5508 188.656V189.57H89.0078V188.656H92.7461V187.449H93.8477V188.656H97.5508ZM88.5156 195.207V194.293H98.125V195.207H93.8477V198.008H92.7461V195.207H88.5156ZM89.8047 191.879C89.7988 190.73 91.1113 190.104 93.2969 190.109C95.4766 190.104 96.7891 190.73 96.7891 191.879C96.7891 192.998 95.4766 193.631 93.2969 193.637C91.1113 193.631 89.7988 192.998 89.8047 191.879ZM90.9531 191.879C90.9531 192.465 91.791 192.799 93.2969 192.793C94.7969 192.799 95.6348 192.465 95.6406 191.879C95.6348 191.275 94.7969 190.941 93.2969 190.941C91.791 190.941 90.9531 191.275 90.9531 191.879ZM108.484 192.805V193.707H104.312V195.746H103.211V193.707H98.875V192.805H108.484ZM100.07 197.773V194.75H101.184V196.871H107.418V197.773H100.07ZM100.105 191.715V187.988H107.242V191.715H100.105ZM101.195 190.836H106.141V188.867H101.195V190.836Z" fill="#151515"/>
<path d="M192.27 377.496V383.742H191.156V381.082H189.199V380.168H191.156V377.496H192.27ZM183.516 382.793C185.145 382.225 186.146 380.807 186.141 379.359V379.125H183.867V378.223H189.527V379.125H187.277V379.348C187.271 380.678 188.221 381.973 189.809 382.512L189.234 383.391C188.057 382.986 187.189 382.143 186.732 381.105C186.275 382.277 185.355 383.221 184.102 383.684L183.516 382.793ZM185.203 386.016C185.197 384.768 186.545 384.041 188.754 384.035C190.951 384.041 192.299 384.768 192.305 386.016C192.299 387.264 190.951 387.99 188.754 387.996C186.545 387.99 185.197 387.264 185.203 386.016ZM186.305 386.016C186.299 386.725 187.213 387.129 188.754 387.117C190.283 387.129 191.197 386.725 191.203 386.016C191.197 385.301 190.283 384.896 188.754 384.902C187.213 384.896 186.299 385.301 186.305 386.016ZM203.484 382.805V383.707H199.312V385.746H198.211V383.707H193.875V382.805H203.484ZM195.07 387.773V384.75H196.184V386.871H202.418V387.773H195.07ZM195.105 381.715V377.988H202.242V381.715H195.105ZM196.195 380.836H201.141V378.867H196.195V380.836Z" fill="#151515"/>
<defs>
<filter id="filter0_f_525_2261" x="184" y="209" width="16" height="10" filterUnits="userSpaceOnUse" color-interpolation-filters="sRGB">
<feFlood flood-opacity="0" result="BackgroundImageFix"/>
<feBlend mode="normal" in="SourceGraphic" in2="BackgroundImageFix" result="shape"/>
<feGaussianBlur stdDeviation="2" result="effect1_foregroundBlur_525_2261"/>
</filter>
<filter id="filter1_f_525_2261" x="220" y="196" width="16" height="10" filterUnits="userSpaceOnUse" color-interpolation-filters="sRGB">
<feFlood flood-opacity="0" result="BackgroundImageFix"/>
<feBlend mode="normal" in="SourceGraphic" in2="BackgroundImageFix" result="shape"/>
<feGaussianBlur stdDeviation="2" result="effect1_foregroundBlur_525_2261"/>
</filter>
<filter id="filter2_f_525_2261" x="225" y="74.9658" width="16" height="10" filterUnits="userSpaceOnUse" color-interpolation-filters="sRGB">
<feFlood flood-opacity="0" result="BackgroundImageFix"/>
<feBlend mode="normal" in="SourceGraphic" in2="BackgroundImageFix" result="shape"/>
<feGaussianBlur stdDeviation="2" result="effect1_foregroundBlur_525_2261"/>
</filter>
<filter id="filter3_f_525_2261" x="168" y="129.966" width="16" height="10" filterUnits="userSpaceOnUse" color-interpolation-filters="sRGB">
<feFlood flood-opacity="0" result="BackgroundImageFix"/>
<feBlend mode="normal" in="SourceGraphic" in2="BackgroundImageFix" result="shape"/>
<feGaussianBlur stdDeviation="2" result="effect1_foregroundBlur_525_2261"/>
</filter>
<filter id="filter4_f_525_2261" x="220" y="158.966" width="16" height="10" filterUnits="userSpaceOnUse" color-interpolation-filters="sRGB">
<feFlood flood-opacity="0" result="BackgroundImageFix"/>
<feBlend mode="normal" in="SourceGraphic" in2="BackgroundImageFix" result="shape"/>
<feGaussianBlur stdDeviation="2" result="effect1_foregroundBlur_525_2261"/>
</filter>
</defs>
</svg>
