<svg width="54" height="61" viewBox="0 0 54 61" fill="none" xmlns="http://www.w3.org/2000/svg">
<g filter="url(#filter0_f_553_3240)">
<ellipse cx="8" cy="56" rx="4" ry="1" fill="#151515"/>
</g>
<path fill-rule="evenodd" clip-rule="evenodd" d="M8 35C3.6 35 0 38.6 0 43C0 48.0668 6.16282 53.7499 7.17116 54.6798C7.23747 54.7409 7.28149 54.7815 7.3 54.8C7.5 54.9 7.8 55 8 55C8.2 55 8.5 54.9 8.7 54.8C8.71851 54.7815 8.76253 54.7409 8.82884 54.6798C9.83718 53.7499 16 48.0668 16 43C16 38.6 12.4 35 8 35ZM8 39C5.8 39 4 40.8 4 43C4 45.2 5.8 47 8 47C10.2 47 12 45.2 12 43C12 40.8 10.2 39 8 39Z" fill="#151515"/>
<g filter="url(#filter1_f_553_3240)">
<ellipse cx="46" cy="21" rx="4" ry="1" fill="#151515"/>
</g>
<path fill-rule="evenodd" clip-rule="evenodd" d="M46 0C41.6 0 38 3.6 38 8C38 13.0668 44.1628 18.7499 45.1712 19.6798C45.2375 19.7409 45.2815 19.7815 45.3 19.8C45.5 19.9 45.8 20 46 20C46.2 20 46.5 19.9 46.7 19.8C46.7185 19.7815 46.7625 19.7409 46.8288 19.6798C47.8372 18.7499 54 13.0668 54 8C54 3.6 50.4 0 46 0ZM46 4C43.8 4 42 5.8 42 8C42 10.2 43.8 12 46 12C48.2 12 50 10.2 50 8C50 5.8 48.2 4 46 4Z" fill="#151515"/>
<defs>
<filter id="filter0_f_553_3240" x="0" y="51" width="16" height="10" filterUnits="userSpaceOnUse" color-interpolation-filters="sRGB">
<feFlood flood-opacity="0" result="BackgroundImageFix"/>
<feBlend mode="normal" in="SourceGraphic" in2="BackgroundImageFix" result="shape"/>
<feGaussianBlur stdDeviation="2" result="effect1_foregroundBlur_553_3240"/>
</filter>
<filter id="filter1_f_553_3240" x="38" y="16" width="16" height="10" filterUnits="userSpaceOnUse" color-interpolation-filters="sRGB">
<feFlood flood-opacity="0" result="BackgroundImageFix"/>
<feBlend mode="normal" in="SourceGraphic" in2="BackgroundImageFix" result="shape"/>
<feGaussianBlur stdDeviation="2" result="effect1_foregroundBlur_553_3240"/>
</filter>
</defs>
</svg>
