<svg width="21" height="9" viewBox="0 0 21 9" fill="none" xmlns="http://www.w3.org/2000/svg">
<path d="M7.86714 4.8C7.86714 7.164 6.04314 9 3.40314 9H0.127141V0.599999H3.40314C6.04314 0.599999 7.86714 2.412 7.86714 4.776V4.8ZM5.93514 4.824V4.8C5.93514 3.312 4.91514 2.268 3.40314 2.268H1.97514V7.332H3.40314C4.91514 7.332 5.93514 6.312 5.93514 4.824ZM12.8019 6.156H9.10586V4.404H12.8019V6.156ZM17.1123 2.136C16.4643 2.136 16.0203 2.496 15.3963 3.264L14.1003 2.22C14.9283 1.092 15.7323 0.48 17.2323 0.48C19.0203 0.48 20.1243 1.512 20.1243 3.084C20.1243 4.488 19.4043 5.196 17.9163 6.348L16.5483 7.404H20.2083V9H13.9923V7.536L16.7883 5.244C17.8323 4.38 18.2403 3.924 18.2403 3.228C18.2403 2.52 17.7723 2.136 17.1123 2.136Z" fill="white"/>
</svg>
