<svg width="21" height="10" viewBox="0 0 21 10" fill="none" xmlns="http://www.w3.org/2000/svg">
<path d="M7.93745 4.8C7.93745 7.164 6.11345 9 3.47345 9H0.197453V0.599999H3.47345C6.11345 0.599999 7.93745 2.412 7.93745 4.776V4.8ZM6.00545 4.824V4.8C6.00545 3.312 4.98545 2.268 3.47345 2.268H2.04545V7.332H3.47345C4.98545 7.332 6.00545 6.312 6.00545 4.824ZM12.8722 6.156H9.17617V4.404H12.8722V6.156ZM17.6054 2.184H14.3054V0.599999H19.9814V1.992L17.8574 4.02C19.0094 4.212 20.1134 4.812 20.1134 6.384C20.1134 7.98 18.9614 9.144 17.0894 9.144C15.5774 9.144 14.5334 8.544 13.8134 7.692L15.0854 6.48C15.6614 7.128 16.2614 7.488 17.1134 7.488C17.8094 7.488 18.3014 7.092 18.3014 6.456C18.3014 5.76 17.7134 5.376 16.6574 5.376H15.8894L15.6014 4.2L17.6054 2.184Z" fill="white"/>
</svg>
