<svg width="22" height="9" viewBox="0 0 22 9" fill="none" xmlns="http://www.w3.org/2000/svg">
<path d="M8.4687 4.8C8.4687 5.392 8.3607 5.944 8.1447 6.456C7.9287 6.968 7.6207 7.412 7.2207 7.788C6.8287 8.164 6.3567 8.46 5.8047 8.676C5.2607 8.892 4.6607 9 4.0047 9H0.728703V0.599999H4.0047C4.6607 0.599999 5.2607 0.707999 5.8047 0.924C6.3567 1.132 6.8287 1.424 7.2207 1.8C7.6207 2.176 7.9287 2.62 8.1447 3.132C8.3607 3.636 8.4687 4.184 8.4687 4.776V4.8ZM6.5367 4.824V4.8C6.5367 4.432 6.4727 4.092 6.3447 3.78C6.2247 3.468 6.0527 3.2 5.8287 2.976C5.6127 2.752 5.3487 2.58 5.0367 2.46C4.7247 2.332 4.3807 2.268 4.0047 2.268H2.5767V7.332H4.0047C4.3807 7.332 4.7247 7.272 5.0367 7.152C5.3487 7.032 5.6127 6.86 5.8287 6.636C6.0527 6.412 6.2247 6.148 6.3447 5.844C6.4727 5.54 6.5367 5.2 6.5367 4.824ZM13.4034 6.156H9.70742V4.404H13.4034V6.156ZM18.9859 0.539999H20.5459V5.688H21.6739V7.188H20.5459V9H18.7819V7.188H14.6779L14.3779 5.88L18.9859 0.539999ZM18.7819 5.688V3.072L16.5499 5.688H18.7819Z" fill="white"/>
</svg>
