<svg width="21" height="10" viewBox="0 0 21 10" fill="none" xmlns="http://www.w3.org/2000/svg">
<path d="M7.82613 4.8C7.82613 7.164 6.00213 9 3.36213 9H0.0861251V0.599999H3.36213C6.00213 0.599999 7.82613 2.412 7.82613 4.776V4.8ZM5.89413 4.824V4.8C5.89413 3.312 4.87413 2.268 3.36213 2.268H1.93413V7.332H3.36213C4.87413 7.332 5.89413 6.312 5.89413 4.824ZM12.7608 6.156H9.06484V4.404H12.7608V6.156ZM14.4433 4.74L14.6833 0.599999H19.8433V2.22H16.2673L16.1713 3.672C16.5073 3.588 16.8073 3.528 17.2753 3.528C18.9313 3.528 20.2153 4.32 20.2153 6.228C20.2153 8.016 18.9553 9.144 17.0233 9.144C15.6793 9.144 14.6953 8.664 13.8793 7.884L14.9953 6.552C15.6313 7.128 16.2553 7.464 16.9993 7.464C17.8633 7.464 18.4033 7.044 18.4033 6.288C18.4033 5.556 17.8153 5.136 16.9153 5.136C16.3873 5.136 15.9073 5.28 15.5113 5.448L14.4433 4.74Z" fill="white"/>
</svg>
