<svg width="22" height="10" viewBox="0 0 22 10" fill="none" xmlns="http://www.w3.org/2000/svg">
<path d="M8.63277 4.8C8.63277 7.164 6.80877 9 4.16877 9H0.892766V0.599999H4.16877C6.80877 0.599999 8.63277 2.412 8.63277 4.776V4.8ZM6.70077 4.824V4.8C6.70077 3.312 5.68077 2.268 4.16877 2.268H2.74077V7.332H4.16877C5.68077 7.332 6.70077 6.312 6.70077 4.824ZM13.5675 6.156H9.87148V4.404H13.5675V6.156ZM21.1299 1.38L20.1579 2.808C19.6059 2.388 19.1619 2.136 18.4419 2.136C17.3979 2.136 16.8699 2.976 16.7499 4.08C17.1699 3.804 17.6619 3.54 18.4899 3.54C20.1579 3.54 21.4419 4.464 21.4419 6.228C21.4419 7.956 20.0619 9.144 18.2379 9.144C17.1459 9.144 16.4019 8.832 15.8139 8.244C15.2019 7.632 14.8179 6.732 14.8179 5.052C14.8179 2.448 15.9939 0.456 18.5019 0.456C19.6419 0.456 20.3859 0.792 21.1299 1.38ZM19.6059 6.312C19.6059 5.592 19.0539 5.076 18.1419 5.076C17.2299 5.076 16.7019 5.58 16.7019 6.3C16.7019 7.032 17.2539 7.56 18.1659 7.56C19.0779 7.56 19.6059 7.044 19.6059 6.312Z" fill="white"/>
</svg>
