<svg width="41" height="11" viewBox="0 0 41 11" fill="none" xmlns="http://www.w3.org/2000/svg">
<path d="M8.4355 4.8C8.4355 7.164 6.6115 9 3.9715 9H0.6955V0.599999H3.9715C6.6115 0.599999 8.4355 2.412 8.4355 4.776V4.8ZM6.5035 4.824V4.8C6.5035 3.312 5.4835 2.268 3.9715 2.268H2.5435V7.332H3.9715C5.4835 7.332 6.5035 6.312 6.5035 4.824ZM13.3702 6.156H9.67422V4.404H13.3702V6.156ZM22.7207 4.8C22.7207 7.164 20.8967 9 18.2567 9H14.9807V0.599999H18.2567C20.8967 0.599999 22.7207 2.412 22.7207 4.776V4.8ZM20.7887 4.824V4.8C20.7887 3.312 19.7687 2.268 18.2567 2.268H16.8287V7.332H18.2567C19.7687 7.332 20.7887 6.312 20.7887 4.824ZM29.7074 9H27.9434V8.304C27.4994 8.796 26.8874 9.12 25.9994 9.12C24.7874 9.12 23.7914 8.424 23.7914 7.152V7.128C23.7914 5.724 24.8594 5.076 26.3834 5.076C27.0314 5.076 27.4994 5.184 27.9554 5.34V5.232C27.9554 4.476 27.4874 4.056 26.5754 4.056C25.8794 4.056 25.3874 4.188 24.7994 4.404L24.3434 3.012C25.0514 2.7 25.7474 2.496 26.8394 2.496C28.8314 2.496 29.7074 3.528 29.7074 5.268V9ZM27.9794 6.732V6.408C27.6674 6.264 27.2594 6.168 26.8154 6.168C26.0354 6.168 25.5554 6.48 25.5554 7.056V7.08C25.5554 7.572 25.9634 7.86 26.5514 7.86C27.4034 7.86 27.9794 7.392 27.9794 6.732ZM37.1626 2.568L34.6906 9.156C34.1986 10.464 33.6706 10.956 32.5786 10.956C31.9186 10.956 31.4266 10.788 30.9586 10.512L31.5706 9.192C31.8106 9.336 32.1106 9.444 32.3506 9.444C32.6626 9.444 32.8306 9.348 32.9866 9.024L30.4666 2.568H32.3986L33.8626 6.948L35.2666 2.568H37.1626ZM38.2979 0.599999H40.4339V0.84L39.8699 6.144H38.8619L38.2979 0.84V0.599999ZM40.3379 9H38.3939V7.08H40.3379V9Z" fill="white"/>
</svg>
